<svg width="24" height="24" viewBox="0 0 24 24" fill="none" xmlns="http://www.w3.org/2000/svg">
<path d="M20 6L16 6" stroke="white" stroke-width="2" stroke-linecap="round" stroke-linejoin="round"/>
<path d="M2 17H1C1 17.5523 1.44772 18 2 18V17ZM2 10C1.44772 10 1 10.4477 1 11C1 11.5523 1.44772 12 2 12V10ZM2 6V5C1.44772 5 1 5.44772 1 6H2ZM9 8.5C9 9.32843 8.32843 10 7.5 10V12C9.433 12 11 10.433 11 8.5H9ZM7.5 7C8.32843 7 9 7.67157 9 8.5H11C11 6.567 9.433 5 7.5 5V7ZM10 14C10 15.1046 9.10457 16 8 16V18C10.2091 18 12 16.2091 12 14H10ZM8 12C9.10457 12 10 12.8954 10 14H12C12 11.7909 10.2091 10 8 10V12ZM8 16H2V18H8V16ZM8 10H2V12H8V10ZM7.5 5H2V7H7.5V5ZM3 17V6H1V17H3Z" fill="white"/>
<path d="M14 13C14 15.2091 15.7909 17 18 17C19.0144 17 19.9407 16.6224 20.6458 16M14 13C14 10.7909 15.7909 9 18 9C20.2091 9 22 10.7909 22 13H14Z" stroke="white" stroke-width="2" stroke-linecap="round" stroke-linejoin="round"/>
</svg>
